<svg width="33" height="32" viewBox="0 0 33 32" fill="none" xmlns="http://www.w3.org/2000/svg">
<g clip-path="url(#clip0_52_109)">
<path d="M5.80069 0.0106454L27.1345 -0.000732422C30.1145 0.096385 32.5823 2.47272 32.8005 5.41672V26.6513C32.5606 29.3214 30.4722 31.5832 27.7842 31.9424C20.1751 32.0184 12.544 32.018 4.93455 31.9424C2.07947 31.4999 0.0209548 28.9732 0.000488281 26.1235V5.78162C0.0385559 2.65639 2.6333 0.0187723 5.80069 0.0106454ZM5.18751 0.781896C2.81463 1.06268 1.0189 2.99975 0.779852 5.33748L0.777805 26.6107C0.989429 29.1333 3.03444 31.2105 5.62345 31.2589H27.2185C29.7985 31.1805 31.8267 29.1239 32.0641 26.6107V5.49799C31.902 3.11028 30.0359 1.05293 27.6249 0.770925L5.18711 0.782303L5.18751 0.781896Z" fill="black"/>
<path d="M5.18705 0.782618L27.6249 0.77124C30.0358 1.05325 31.902 3.11059 32.0641 5.4983V26.6114C31.8262 29.1247 29.7984 31.1812 27.218 31.2596H5.62299C3.03398 31.2113 0.988967 29.134 0.777344 26.6114L0.77939 5.3382C1.01844 3.00047 2.81417 1.06341 5.18705 0.782618ZM21.8148 19.7937C20.8722 18.6291 19.6777 17.3113 18.837 16.1125C18.7772 16.0272 18.6888 15.9378 18.706 15.8305C18.7273 15.6973 18.9892 15.3949 19.0826 15.2682C21.3257 12.2246 23.7592 9.30904 25.9957 6.25858C26.1345 6.01355 26.0056 5.86727 25.7456 5.8441C24.6724 5.7478 23.3564 5.73276 22.6552 6.67712C20.2095 9.81088 17.7457 12.9312 15.32 16.08C13.7994 18.0545 12.3127 20.2589 10.7142 22.1436C10.316 22.6129 9.78669 23.1355 9.16328 23.2834C8.85547 23.3561 8.27135 23.4435 8.26194 22.9973L8.2603 16.4193C8.28486 16.1572 8.3348 16.0658 8.60946 16.0353C9.84809 15.8968 11.1936 16.141 12.4883 15.9484C15.9647 15.4307 18.3343 12.2209 16.8562 8.82264C15.0572 4.68641 9.55542 6.09767 5.99016 5.8441C5.84198 5.8372 5.71877 5.91074 5.66269 6.04687L5.64264 23.2021C5.71836 24.4086 6.35692 25.3298 7.55748 25.6451C9.52963 26.1628 11.3589 25.205 12.636 23.7678C14.1362 22.079 15.3884 19.9883 16.8505 18.2491C17.0343 17.9996 17.1649 18.1126 17.3388 18.2894L22.8996 25.2318C23.2352 25.5175 23.6654 25.7288 24.1124 25.7731C24.435 25.8052 25.8856 25.8328 26.1423 25.7682C26.3175 25.7243 26.4603 25.5273 26.3302 25.3574C24.8521 23.4821 23.3159 21.6499 21.8136 19.7941L21.8148 19.7937Z" fill="black"/>
<path d="M21.8155 19.7928C23.3178 21.6486 24.854 23.4808 26.3321 25.3561C26.4622 25.526 26.319 25.7231 26.1442 25.7669C25.8875 25.8316 24.4373 25.8039 24.1143 25.7718C23.6669 25.7275 23.2367 25.5158 22.9015 25.2306L17.3407 18.2881C17.1668 18.1113 17.0362 17.9984 16.8524 18.2479C15.3903 19.987 14.1381 22.0777 12.6379 23.7665C11.3612 25.2037 9.53153 26.1615 7.55938 25.6438C6.35881 25.3289 5.72026 24.4073 5.64453 23.2008L5.66459 6.0456C5.72067 5.90947 5.84347 5.83592 5.99205 5.84283C9.55731 6.09639 15.0591 4.68514 16.8581 8.82137C18.3362 12.2197 15.9666 15.4294 12.4902 15.9471C11.195 16.1397 9.84998 15.8955 8.61135 16.0341C8.33669 16.065 8.28675 16.156 8.26219 16.4181L8.26383 22.996C8.27325 23.4422 8.85736 23.3553 9.16518 23.2821C9.78859 23.1346 10.3178 22.6116 10.7161 22.1423C12.3146 20.2577 13.8012 18.0528 15.3219 16.0788C17.7476 12.9296 20.2113 9.80921 22.6571 6.67585C23.3583 5.73149 24.6739 5.74653 25.7475 5.84283C26.0075 5.86599 26.1364 6.01228 25.9976 6.25731C23.7611 9.30777 21.3276 12.2233 19.0845 15.2669C18.9907 15.3937 18.7292 15.696 18.7079 15.8293C18.6907 15.937 18.7787 16.0259 18.8389 16.1113C19.6796 17.3104 20.8736 18.6278 21.8167 19.7924L21.8155 19.7928ZM8.35634 8.33213C8.29617 8.39186 8.26874 8.53733 8.26097 8.62307C8.12671 10.0932 8.36698 11.7629 8.26138 13.2546C8.28553 13.5115 8.33424 13.6163 8.60849 13.6407C9.60602 13.7297 12.01 13.7167 12.9228 13.4139C15.2589 12.639 15.301 9.20659 13.0149 8.45444C12.114 8.15821 9.63918 8.14846 8.64901 8.23745C8.56264 8.24517 8.4161 8.27239 8.35593 8.33213H8.35634Z" fill="white"/>
<path d="M8.35568 8.33304C8.41585 8.2733 8.56239 8.24608 8.64876 8.23836C9.63893 8.14937 12.1133 8.15912 13.0147 8.45535C15.3008 9.2075 15.2586 12.6399 12.9226 13.4148C12.0098 13.7176 9.60536 13.7306 8.60824 13.6416C8.33399 13.6172 8.28528 13.5124 8.26113 13.2555C8.36673 11.7638 8.12646 10.0942 8.26072 8.62398C8.26849 8.53824 8.29592 8.39277 8.35609 8.33304H8.35568Z" fill="black"/>
</g>
<defs>
<clipPath id="clip0_52_109">
<rect width="32.8" height="32" fill="white"/>
</clipPath>
</defs>
</svg>
